# xmcd CD database file
#
# Track frame offsets:
#	150
#	38614
#	89025
#	136361
#	210895
#	269399
#
# Disc length: 3692 seconds
#
# Revision: 0
# Processed by: cddbd v1.5.2PL0 Copyright (c) Steve Scherf et al.
# Submitted via: CDex 1.70beta2
#
DISCID=4d0e6a06
DTITLE=Mitchel Forman - Mr. Clean
DYEAR=1998
DGENRE=Jazz
TTITLE0=Gorgeous
TTITLE1=Patience
TTITLE2=Spank-A-Lee
TTITLE3=Mr. Clean 
TTITLE4=Origin
TTITLE5=Bien Cuit
EXTD=YEAR: 1998
EXTT0=
EXTT1=
EXTT2=
EXTT3=
EXTT4=
EXTT5=
PLAYORDER=
